<?xml version="1.0" encoding="UTF-8" standalone="no"?>
<svg
   xmlns:dc="http://purl.org/dc/elements/1.1/"
   xmlns:cc="http://creativecommons.org/ns#"
   xmlns:rdf="http://www.w3.org/1999/02/22-rdf-syntax-ns#"
   xmlns:svg="http://www.w3.org/2000/svg"
   xmlns="http://www.w3.org/2000/svg"
   xmlns:sodipodi="http://sodipodi.sourceforge.net/DTD/sodipodi-0.dtd"
   xmlns:inkscape="http://www.inkscape.org/namespaces/inkscape"
   width="73.101814mm"
   height="86.038353mm"
   viewBox="0 0 73.101814 86.038353"
   version="1.1"
   id="svg3290"
   inkscape:version="1.0.1 (3bc2e813f5, 2020-09-07)"
   sodipodi:docname="io.github.flightlessmango.mangohud.svg">
  <title
     id="title5515">FlightlessMango Icon</title>
  <defs
     id="defs3284">
    <clipPath
       clipPathUnits="userSpaceOnUse"
       id="clipPath2486">
      <rect
         style="opacity:1;stroke-width:0.75"
         id="rect2488"
         width="207.21774"
         height="243.88824"
         x="893.77185"
         y="-713.32947"
         transform="scale(1,-1)" />
    </clipPath>
    <clipPath
       clipPathUnits="userSpaceOnUse"
       id="clipPath2344">
      <path
         d="M 0,2000 H 2000 V 0 H 0 Z"
         id="path2342" />
    </clipPath>
  </defs>
  <sodipodi:namedview
     id="base"
     pagecolor="#ffffff"
     bordercolor="#666666"
     borderopacity="1.0"
     inkscape:pageopacity="0.0"
     inkscape:pageshadow="2"
     inkscape:zoom="0.49497475"
     inkscape:cx="-313.85759"
     inkscape:cy="470.82412"
     inkscape:document-units="mm"
     inkscape:current-layer="layer1"
     inkscape:document-rotation="0"
     showgrid="false"
     units="mm"
     fit-margin-top="0"
     fit-margin-left="0"
     fit-margin-right="0"
     fit-margin-bottom="0"
     inkscape:window-width="1274"
     inkscape:window-height="1056"
     inkscape:window-x="1280"
     inkscape:window-y="0"
     inkscape:window-maximized="0" />
  <metadata
     id="metadata3287">
    <rdf:RDF>
      <cc:Work
         rdf:about="">
        <dc:format>image/svg+xml</dc:format>
        <dc:type
           rdf:resource="http://purl.org/dc/dcmitype/StillImage" />
        <dc:title>FlightlessMango Icon</dc:title>
        <cc:license
           rdf:resource="http://creativecommons.org/licenses/by/4.0/" />
        <dc:date>2020-11-14</dc:date>
        <dc:creator>
          <cc:Agent>
            <dc:title>FlightlessMango</dc:title>
          </cc:Agent>
        </dc:creator>
      </cc:Work>
      <cc:License
         rdf:about="http://creativecommons.org/licenses/by/4.0/">
        <cc:permits
           rdf:resource="http://creativecommons.org/ns#Reproduction" />
        <cc:permits
           rdf:resource="http://creativecommons.org/ns#Distribution" />
        <cc:requires
           rdf:resource="http://creativecommons.org/ns#Notice" />
        <cc:requires
           rdf:resource="http://creativecommons.org/ns#Attribution" />
        <cc:permits
           rdf:resource="http://creativecommons.org/ns#DerivativeWorks" />
      </cc:License>
    </rdf:RDF>
  </metadata>
  <g
     inkscape:label="Layer 1"
     inkscape:groupmode="layer"
     id="layer1"
     transform="translate(-0.06554034,-0.07012108)">
    <g
       id="g2338"
       clip-path="url(#clipPath2486)"
       transform="matrix(0.35277777,0,0,-0.35277777,-315.2373,251.7169)">
      <g
         id="g2340"
         clip-path="url(#clipPath2344)">
        <g
           id="g2346"
           transform="translate(683.6049,1312.4586)">
          <path
             d="M 0,0 V -4.41 H -11.995 V -14.829 H 0 v -4.41 H -11.995 V -34.09 h -4.411 V 0 Z"
             style="fill:#ffffff;fill-opacity:1;fill-rule:nonzero;stroke:none"
             id="path2348" />
        </g>
        <path
           d="m 715.713,1278.369 h -4.432 v 34.111 h 4.432 z"
           style="fill:#ffffff;fill-opacity:1;fill-rule:nonzero;stroke:none"
           id="path2350" />
        <path
           d="m 748.695,1278.369 h -4.41 v 21.924 h 4.41 z m -0.022,30.042 c 0.611,-0.597 0.916,-1.328 0.916,-2.195 0,-0.867 -0.305,-1.598 -0.916,-2.195 -0.611,-0.596 -1.342,-0.894 -2.194,-0.894 -0.839,0 -1.563,0.298 -2.173,0.894 -0.611,0.597 -0.916,1.328 -0.916,2.195 0,0.867 0.305,1.598 0.916,2.195 0.61,0.596 1.334,0.895 2.173,0.895 0.852,0 1.583,-0.299 2.194,-0.895"
           style="fill:#ffffff;fill-opacity:1;fill-rule:nonzero;stroke:none"
           id="path2352" />
        <g
           id="g2354"
           transform="translate(796.2708,1291.6427)">
          <path
             d="m 0,0 c -0.27,1.349 -0.951,2.571 -2.045,3.665 -1.478,1.491 -3.267,2.237 -5.369,2.237 -2.103,0 -3.896,-0.746 -5.38,-2.237 -1.485,-1.492 -2.227,-3.281 -2.227,-5.37 0,-2.102 0.742,-3.895 2.227,-5.379 1.484,-1.485 3.277,-2.227 5.38,-2.227 2.102,0 3.891,0.739 5.369,2.216 1.094,1.094 1.775,2.301 2.045,3.622 z M 0.022,7.137 V 8.65 H 4.453 V -7.649 c 0,-4.261 -1.158,-7.549 -3.473,-9.864 -2.372,-2.089 -5.234,-3.133 -8.586,-3.133 -3.352,0 -6.215,1.044 -8.587,3.133 -0.483,0.483 -1.256,1.463 -2.322,2.94 l 4.389,1.576 c 0.568,-0.681 0.952,-1.121 1.15,-1.321 1.492,-1.477 3.282,-2.215 5.37,-2.215 3.508,0 5.937,2.301 7.287,6.903 -1.378,-2.671 -3.743,-4.006 -7.095,-4.006 -3.353,0 -6.211,1.151 -8.576,3.452 -2.365,2.301 -3.547,5.127 -3.547,8.479 0,3.353 1.182,6.211 3.547,8.576 2.365,2.365 5.223,3.548 8.576,3.548 2.826,0 5.305,-1.094 7.436,-3.282"
             style="fill:#ffffff;fill-opacity:1;fill-rule:nonzero;stroke:none"
             id="path2356" />
        </g>
        <g
           id="g2358"
           transform="translate(829.0182,1312.4586)">
          <path
             d="m 0,0 h 4.432 v -14.531 c 1.235,2.372 3.025,3.558 5.369,3.558 2.344,0 4.215,-0.841 5.614,-2.524 1.399,-1.683 2.12,-3.796 2.163,-6.339 V -34.09 h -4.411 v 14.084 c 0,1.264 -0.358,2.347 -1.076,3.249 -0.717,0.902 -1.85,1.353 -3.398,1.353 -1.832,0 -3.253,-0.98 -4.261,-2.94 V -34.09 H 0 Z"
             style="fill:#ffffff;fill-opacity:1;fill-rule:nonzero;stroke:none"
             id="path2360" />
        </g>
        <g
           id="g2362"
           transform="translate(877.4686,1300.2928)">
          <path
             d="M 0,0 V 8.224 H 4.41 V 0 H 8.352 V -4.41 H 4.41 V -21.924 H 0 V -4.41 H -3.942 V 0 Z"
             style="fill:#ffffff;fill-opacity:1;fill-rule:nonzero;stroke:none"
             id="path2364" />
        </g>
        <path
           d="m 917.204,1278.369 h -4.432 v 34.111 h 4.432 z"
           style="fill:#ffffff;fill-opacity:1;fill-rule:nonzero;stroke:none"
           id="path2366" />
        <g
           id="g2368"
           transform="translate(959.6033,1296.9692)">
          <path
             d="m 0,0 c -0.497,0.384 -1.613,0.575 -3.345,0.575 -2.088,0 -3.875,-0.742 -5.359,-2.226 -1.484,-1.485 -2.226,-3.278 -2.226,-5.38 0,-1.719 0.191,-2.834 0.575,-3.345 z m -7.372,-13.636 c 0.738,-0.654 2.08,-0.98 4.027,-0.98 2.102,0 3.899,0.739 5.39,2.216 0.185,0.199 0.561,0.639 1.129,1.321 l 4.411,-1.577 c -1.08,-1.491 -1.861,-2.479 -2.344,-2.961 -2.372,-2.373 -5.234,-3.558 -8.586,-3.558 -3.338,0 -6.193,1.185 -8.565,3.558 -2.373,2.372 -3.558,5.234 -3.558,8.586 0,3.352 1.185,6.214 3.558,8.587 2.372,2.371 5.227,3.557 8.565,3.557 2.869,0 5.383,-0.866 7.542,-2.599 C 4.552,2.216 4.9,1.896 5.241,1.556 5.383,1.413 5.787,0.966 6.456,0.213 L 4.24,-2.024 Z"
             style="fill:#ffffff;fill-opacity:1;fill-rule:nonzero;stroke:none"
             id="path2370" />
        </g>
        <g
           id="g2372"
           transform="translate(998.5509,1283.0776)">
          <path
             d="M 0,0 C 0.525,-0.511 1.151,-0.767 1.875,-0.767 2.6,-0.767 3.221,-0.511 3.74,0 4.258,0.512 4.517,1.143 4.517,1.896 4.517,2.621 4.261,3.239 3.75,3.75 3.395,4.105 2.635,4.652 1.47,5.39 c -1.591,0.867 -2.72,1.634 -3.388,2.301 -1.165,1.165 -1.746,2.564 -1.746,4.198 0,1.647 0.581,3.057 1.746,4.229 1.165,1.172 2.571,1.758 4.219,1.758 1.647,0 3.019,-0.554 4.113,-1.662 0.78,-0.781 1.278,-1.655 1.49,-2.621 L 3.622,12.358 c -0.1,0.354 -0.199,0.589 -0.298,0.703 -0.256,0.255 -0.597,0.383 -1.023,0.383 -0.426,0 -0.792,-0.152 -1.097,-0.458 -0.306,-0.305 -0.458,-0.671 -0.458,-1.097 0,-0.426 0.149,-0.788 0.447,-1.087 C 1.463,10.547 2.074,10.113 3.026,9.503 4.787,8.536 6.065,7.656 6.861,6.86 8.238,5.468 8.928,3.814 8.928,1.896 c 0,-1.96 -0.686,-3.632 -2.057,-5.017 -1.37,-1.385 -3.036,-2.078 -4.996,-2.078 -1.946,0 -3.608,0.696 -4.985,2.088 -0.953,0.952 -1.577,2.138 -1.876,3.559 l 4.39,0.937 C -0.468,0.732 -0.27,0.27 0,0"
             style="fill:#ffffff;fill-opacity:1;fill-rule:nonzero;stroke:none"
             id="path2374" />
        </g>
        <g
           id="g2376"
           transform="translate(1039.1595,1283.0776)">
          <path
             d="m 0,0 c 0.525,-0.511 1.151,-0.767 1.875,-0.767 0.724,0 1.346,0.256 1.865,0.767 0.518,0.512 0.777,1.143 0.777,1.896 0,0.725 -0.256,1.343 -0.767,1.854 -0.355,0.355 -1.116,0.902 -2.28,1.64 -1.591,0.867 -2.72,1.634 -3.388,2.301 -1.165,1.165 -1.746,2.564 -1.746,4.198 0,1.647 0.581,3.057 1.746,4.229 1.165,1.172 2.571,1.758 4.219,1.758 1.647,0 3.019,-0.554 4.113,-1.662 0.78,-0.781 1.278,-1.655 1.49,-2.621 L 3.622,12.358 c -0.1,0.354 -0.199,0.589 -0.298,0.703 -0.256,0.255 -0.597,0.383 -1.023,0.383 -0.426,0 -0.792,-0.152 -1.097,-0.458 -0.306,-0.305 -0.458,-0.671 -0.458,-1.097 0,-0.426 0.149,-0.788 0.447,-1.087 C 1.463,10.547 2.074,10.113 3.026,9.503 4.787,8.536 6.065,7.656 6.861,6.86 8.238,5.468 8.928,3.814 8.928,1.896 c 0,-1.96 -0.686,-3.632 -2.057,-5.017 -1.37,-1.385 -3.036,-2.078 -4.996,-2.078 -1.946,0 -3.608,0.696 -4.985,2.088 -0.953,0.952 -1.577,2.138 -1.876,3.559 l 4.39,0.937 C -0.468,0.732 -0.27,0.27 0,0"
             style="fill:#ffffff;fill-opacity:1;fill-rule:nonzero;stroke:none"
             id="path2378" />
        </g>
        <g
           id="g2380"
           transform="translate(1080.4086,1312.4586)">
          <path
             d="M 0,0 11.058,-19.111 22.072,0 H 26.1 V -34.09 H 21.69 V -9.46 L 11.058,-27.868 0.384,-9.46 V -34.09 H -4.027 V 0 Z"
             style="fill:#ffffff;fill-opacity:1;fill-rule:nonzero;stroke:none"
             id="path2382" />
        </g>
        <g
           id="g2384"
           transform="translate(1154.7667,1288.2979)">
          <path
             d="m 0,0 v 3.239 c -0.256,1.377 -0.938,2.627 -2.046,3.749 -1.491,1.477 -3.281,2.216 -5.369,2.216 -2.102,0 -3.896,-0.739 -5.379,-2.216 -1.485,-1.477 -2.227,-3.267 -2.227,-5.369 0,-2.088 0.742,-3.874 2.227,-5.358 1.483,-1.485 3.277,-2.227 5.379,-2.227 2.088,0 3.878,0.738 5.369,2.216 1.108,1.122 1.79,2.372 2.046,3.75 m 0,10.461 v 1.534 H 4.432 V -9.95 H 0 v 2.748 c -2.131,-2.201 -4.603,-3.302 -7.415,-3.302 -3.352,0 -6.21,1.183 -8.576,3.547 -2.365,2.365 -3.547,5.224 -3.547,8.576 0,3.352 1.182,6.211 3.547,8.576 2.366,2.365 5.224,3.547 8.576,3.547 2.812,0 5.284,-1.094 7.415,-3.281"
             style="fill:#ffffff;fill-opacity:1;fill-rule:nonzero;stroke:none"
             id="path2386" />
        </g>
        <g
           id="g2388"
           transform="translate(1191.8602,1294.4125)">
          <path
             d="M 0,0 V -16.043 H -4.432 V 5.88 H 0 V 3.324 c 0.923,2.499 2.777,3.749 5.561,3.749 2.372,0 4.257,-0.841 5.657,-2.524 1.399,-1.683 2.12,-3.796 2.162,-6.339 V -16.043 H 8.97 V -1.96 C 8.97,-0.696 8.508,0.387 7.585,1.289 6.661,2.191 5.561,2.642 4.282,2.642 3.018,2.642 1.925,2.202 1.001,1.321 0.49,0.796 0.156,0.355 0,0"
             style="fill:#ffffff;fill-opacity:1;fill-rule:nonzero;stroke:none"
             id="path2390" />
        </g>
        <g
           id="g2392"
           transform="translate(1252.5187,1291.6427)">
          <path
             d="m 0,0 c -0.271,1.349 -0.952,2.571 -2.046,3.665 -1.477,1.491 -3.267,2.237 -5.369,2.237 -2.102,0 -3.896,-0.746 -5.379,-2.237 -1.485,-1.492 -2.227,-3.281 -2.227,-5.37 0,-2.102 0.742,-3.895 2.227,-5.379 1.483,-1.485 3.277,-2.227 5.379,-2.227 2.102,0 3.892,0.739 5.369,2.216 1.094,1.094 1.775,2.301 2.046,3.622 z M 0.021,7.137 V 8.65 H 4.453 V -7.649 c 0,-4.261 -1.158,-7.549 -3.473,-9.864 -2.372,-2.089 -5.235,-3.133 -8.586,-3.133 -3.353,0 -6.215,1.044 -8.587,3.133 -0.483,0.483 -1.257,1.463 -2.322,2.94 l 4.388,1.576 c 0.569,-0.681 0.952,-1.121 1.152,-1.321 1.491,-1.477 3.28,-2.215 5.369,-2.215 3.507,0 5.937,2.301 7.286,6.903 -1.378,-2.671 -3.743,-4.006 -7.095,-4.006 -3.352,0 -6.21,1.151 -8.576,3.452 -2.365,2.301 -3.547,5.127 -3.547,8.479 0,3.353 1.182,6.211 3.547,8.576 2.366,2.365 5.224,3.548 8.576,3.548 2.827,0 5.305,-1.094 7.436,-3.282"
             style="fill:#ffffff;fill-opacity:1;fill-rule:nonzero;stroke:none"
             id="path2394" />
        </g>
        <g
           id="g2396"
           transform="translate(1290.7312,1295.3074)">
          <path
             d="m 0,0 c -1.484,-1.492 -2.226,-3.281 -2.226,-5.369 0,-2.102 0.742,-3.892 2.226,-5.369 1.484,-1.477 3.278,-2.216 5.38,-2.216 2.102,0 3.895,0.739 5.38,2.216 1.484,1.477 2.226,3.267 2.226,5.369 0,2.088 -0.742,3.877 -2.226,5.369 C 9.275,1.492 7.482,2.237 5.38,2.237 3.278,2.237 1.484,1.492 0,0 m 5.38,6.775 c 3.352,0 6.211,-1.186 8.575,-3.558 2.365,-2.372 3.548,-5.234 3.548,-8.586 0,-3.353 -1.183,-6.214 -3.548,-8.587 -2.364,-2.372 -5.223,-3.557 -8.575,-3.557 -3.338,0 -6.193,1.185 -8.565,3.557 -2.372,2.373 -3.558,5.234 -3.558,8.587 0,3.352 1.186,6.214 3.558,8.586 2.372,2.372 5.227,3.558 8.565,3.558"
             style="fill:#ffffff;fill-opacity:1;fill-rule:nonzero;stroke:none"
             id="path2398" />
        </g>
        <path
           d="M 2000,0 H 5 v 983 h 1995 z"
           style="fill:#fffae3;fill-opacity:1;fill-rule:nonzero;stroke:none"
           id="path2400" />
        <g
           id="g2402"
           transform="translate(757.9102,452.8965)">
          <path
             d="m 0,0 v -7.977 h 6.042 v -3.947 H 0 V -24.251 H -4.271 V 3.947 H 7.533 V 0 Z"
             style="fill:#414042;fill-opacity:1;fill-rule:nonzero;stroke:none"
             id="path2404" />
        </g>
        <g
           id="g2406"
           transform="translate(797.7944,432.6738)">
          <path
             d="M 0,0 V -4.028 H -11.4 V 24.17 h 4.27 L -7.13,0 Z"
             style="fill:#414042;fill-opacity:1;fill-rule:nonzero;stroke:none"
             id="path2408" />
        </g>
        <path
           d="m 818.666,456.844 h 4.27 v -28.198 h -4.27 z"
           style="fill:#414042;fill-opacity:1;fill-rule:nonzero;stroke:none"
           id="path2410" />
        <g
           id="g2412"
           transform="translate(858.5898,450.4785)">
          <path
             d="m 0,0 v -1.934 l -4.109,-0.201 v 1.693 c 0,2.255 -0.846,3.262 -2.497,3.262 -1.652,0 -2.498,-1.007 -2.498,-2.86 v -15.388 c 0,-1.853 0.806,-2.86 2.458,-2.86 1.651,0 2.457,1.007 2.457,3.263 v 4.834 h -2.417 v 3.948 H 0 v -9.226 c 0,-4.269 -2.457,-6.767 -6.728,-6.767 -4.229,0 -6.646,2.498 -6.646,6.767 V 0 c 0,4.271 2.417,6.768 6.646,6.768 C -2.457,6.768 0,4.271 0,0"
             style="fill:#414042;fill-opacity:1;fill-rule:nonzero;stroke:none"
             id="path2414" />
        </g>
        <g
           id="g2416"
           transform="translate(890.0957,428.6455)">
          <path
             d="M 0,0 V 12.286 H -5.075 V 0 h -4.271 v 28.198 h 4.271 V 16.314 H 0 V 28.198 H 4.271 V 0 Z"
             style="fill:#414042;fill-opacity:1;fill-rule:nonzero;stroke:none"
             id="path2418" />
        </g>
        <g
           id="g2420"
           transform="translate(924.0195,452.8154)">
          <path
             d="M 0,0 V -24.17 H -4.271 V 0 H -8.822 V 4.028 H 4.552 V 0 Z"
             style="fill:#414042;fill-opacity:1;fill-rule:nonzero;stroke:none"
             id="path2422" />
        </g>
        <g
           id="g2424"
           transform="translate(960.8022,432.6738)">
          <path
             d="M 0,0 V -4.028 H -11.4 V 24.17 h 4.27 L -7.13,0 Z"
             style="fill:#414042;fill-opacity:1;fill-rule:nonzero;stroke:none"
             id="path2426" />
        </g>
        <g
           id="g2428"
           transform="translate(985.9434,452.8965)">
          <path
             d="m 0,0 v -7.977 h 6.244 v -3.947 H 0 v -8.379 h 7.734 v -3.948 H -4.27 V 3.947 H 7.734 V 0 Z"
             style="fill:#414042;fill-opacity:1;fill-rule:nonzero;stroke:none"
             id="path2430" />
        </g>
        <g
           id="g2432"
           transform="translate(1026.7549,450.9219)">
          <path
             d="m 0,0 v -0.725 l -4.109,-0.403 v 1.048 c 0,1.611 -0.766,2.457 -2.175,2.457 -1.41,0 -2.176,-0.846 -2.176,-2.457 v -0.363 c 0,-1.652 0.726,-3.061 3.585,-5.479 3.908,-3.303 5.358,-5.639 5.358,-9.023 v -1.409 c 0,-4.029 -2.377,-6.326 -6.606,-6.326 -4.231,0 -6.606,2.297 -6.606,6.326 v 1.893 l 4.108,0.402 v -2.013 c 0,-1.774 0.806,-2.659 2.417,-2.659 1.611,0 2.417,0.885 2.417,2.659 v 0.926 c 0,1.772 -0.846,3.182 -3.706,5.599 -3.907,3.303 -5.236,5.64 -5.236,8.943 V 0 c 0,4.028 2.295,6.324 6.364,6.324 C -2.297,6.324 0,4.028 0,0"
             style="fill:#414042;fill-opacity:1;fill-rule:nonzero;stroke:none"
             id="path2434" />
        </g>
        <g
           id="g2436"
           transform="translate(1059.3076,450.9219)">
          <path
             d="m 0,0 v -0.725 l -4.109,-0.403 v 1.048 c 0,1.611 -0.766,2.457 -2.175,2.457 -1.41,0 -2.176,-0.846 -2.176,-2.457 v -0.363 c 0,-1.652 0.726,-3.061 3.585,-5.479 3.908,-3.303 5.358,-5.639 5.358,-9.023 v -1.409 c 0,-4.029 -2.377,-6.326 -6.606,-6.326 -4.231,0 -6.606,2.297 -6.606,6.326 v 1.893 l 4.108,0.402 v -2.013 c 0,-1.774 0.806,-2.659 2.417,-2.659 1.611,0 2.417,0.885 2.417,2.659 v 0.926 c 0,1.772 -0.846,3.182 -3.706,5.599 -3.907,3.303 -5.236,5.64 -5.236,8.943 V 0 c 0,4.028 2.295,6.324 6.364,6.324 C -2.297,6.324 0,4.028 0,0"
             style="fill:#414042;fill-opacity:1;fill-rule:nonzero;stroke:none"
             id="path2438" />
        </g>
        <g
           id="g2440"
           transform="translate(1094.3184,428.6455)">
          <path
             d="M 0,0 V 19.577 H -0.081 L -3.626,4.028 H -6.163 L -9.708,19.577 H -9.789 V 0 h -4.028 v 28.198 h 5.599 l 3.344,-15.146 h 0.08 L -1.49,28.198 H 4.271 V 0 Z"
             style="fill:#414042;fill-opacity:1;fill-rule:nonzero;stroke:none"
             id="path2442" />
        </g>
        <g
           id="g2444"
           transform="translate(1125.542,438.918)">
          <path
             d="M 0,0 H 3.586 L 1.854,11.883 H 1.732 Z m 5.076,-10.272 -0.927,6.405 h -4.712 l -0.927,-6.405 h -4.27 l 4.874,28.198 h 5.439 l 4.874,-28.198 z"
             style="fill:#414042;fill-opacity:1;fill-rule:nonzero;stroke:none"
             id="path2446" />
        </g>
        <g
           id="g2448"
           transform="translate(1165.8701,428.6455)">
          <path
             d="M 0,0 -5.599,18.691 H -5.68 V 0 h -4.028 v 28.198 h 4.754 L 0.081,11.4 H 0.162 V 28.198 H 4.189 V 0 Z"
             style="fill:#414042;fill-opacity:1;fill-rule:nonzero;stroke:none"
             id="path2450" />
        </g>
        <g
           id="g2452"
           transform="translate(1205.7158,450.4785)">
          <path
             d="m 0,0 v -1.934 l -4.108,-0.201 v 1.693 c 0,2.255 -0.846,3.262 -2.497,3.262 -1.653,0 -2.499,-1.007 -2.499,-2.86 v -15.388 c 0,-1.853 0.806,-2.86 2.458,-2.86 1.652,0 2.457,1.007 2.457,3.263 v 4.834 h -2.416 v 3.948 H 0 v -9.226 c 0,-4.269 -2.457,-6.767 -6.727,-6.767 -4.23,0 -6.646,2.498 -6.646,6.767 V 0 c 0,4.271 2.416,6.768 6.646,6.768 C -2.457,6.768 0,4.271 0,0"
             style="fill:#414042;fill-opacity:1;fill-rule:nonzero;stroke:none"
             id="path2454" />
        </g>
        <g
           id="g2456"
           transform="translate(1231.7031,450.0762)">
          <path
             d="m 0,0 v -14.663 c 0,-2.095 0.927,-3.223 2.618,-3.223 1.693,0 2.619,1.128 2.619,3.223 V 0 C 5.237,2.095 4.311,3.223 2.618,3.223 0.927,3.223 0,2.095 0,0 m 9.507,0.04 v -14.743 c 0,-4.432 -2.618,-7.131 -6.889,-7.131 -4.269,0 -6.889,2.699 -6.889,7.131 V 0.04 c 0,4.432 2.62,7.13 6.889,7.13 4.271,0 6.889,-2.698 6.889,-7.13"
             style="fill:#414042;fill-opacity:1;fill-rule:nonzero;stroke:none"
             id="path2458" />
        </g>
        <g
           id="g2460"
           transform="translate(1100.9401,661.5807)">
          <path
             d="m 0,0 c 0,0 -31.4,46.786 -77.244,51.496 0,0 -86.911,9.978 -106.761,-96.712 -3.373,-18.131 -3.024,-34.734 0.124,-49.549 9.467,-10.111 23.255,-20.105 40.687,-27.366 19.155,-7.978 26.834,-21.155 29.838,-31.678 18.644,26.846 1.258,68.715 1.258,68.715 19.468,-6.28 27.318,-35.796 27.318,-35.796 10.362,11.304 19.154,43.332 -0.314,67.196 -14.232,17.446 -13.816,42.076 -11.618,51.496 3.172,13.595 15.085,25.277 29.045,25.277 13.96,0 25.277,-11.317 25.277,-25.277 0,-8.236 -7.629,-15.162 -12.234,-21.266 -21.443,-28.425 6.896,-39.65 8.78,-69.48 4.359,-69.014 -50.868,-64.057 -50.868,-64.057 -1.587,-5.818 -8.659,-12.973 -10.85,-15.085 0.003,0 0.007,-10e-4 0.011,-0.002 0.065,0.043 0.103,0.066 0.103,0.066 l 5.242,-0.849 c 26.536,-3 53.043,7.333 68.922,34.083 C 7.536,-70.022 -91.06,-52.124 0,0"
             style="fill:#f7941e;fill-opacity:1;fill-rule:nonzero;stroke:none"
             id="path2462" />
        </g>
        <g
           id="g2464"
           transform="translate(1038.7678,651.5327)">
          <path
             d="m 0,0 c 5.116,0 9.263,4.147 9.263,9.263 0,1.321 -0.281,2.575 -0.779,3.712 C 7.875,12.379 7.042,12.01 6.123,12.01 c -1.864,0 -3.375,1.512 -3.375,3.376 0,0.919 0.368,1.752 0.964,2.361 C 2.575,18.245 1.321,18.526 0,18.526 -5.116,18.526 -9.263,14.379 -9.263,9.263 -9.263,4.147 -5.116,0 0,0"
             style="fill:#f7941e;fill-opacity:1;fill-rule:nonzero;stroke:none"
             id="path2466" />
        </g>
        <g
           id="g2468"
           transform="translate(993.389,489.493)">
          <path
             d="m 0,0 c -0.013,-0.008 -0.028,-0.019 -0.043,-0.029 -0.151,-0.1 -0.411,-0.281 -0.75,-0.549 -1.987,-1.572 -6.576,-6.075 -6.361,-14.016 0.273,-10.12 8.456,-4.177 7.895,1.106 -0.561,5.282 5.368,12.581 5.368,12.581 L 5.346,-0.783 0.103,0.066 C 0.103,0.066 0.065,0.043 0,0"
             style="fill:#74a643;fill-opacity:1;fill-rule:nonzero;stroke:none"
             id="path2470" />
        </g>
        <g
           id="g2472"
           transform="translate(987.5845,507.7722)">
          <path
             d="m 0,0 c -3.004,10.522 -10.684,23.7 -29.839,31.678 -17.432,7.26 -31.219,17.254 -40.686,27.365 -9.959,10.637 -15.137,21.403 -14.738,29.25 0,0 -26.008,-65.675 13.438,-101.405 34.576,-31.319 71.326,-7.651 71.326,-7.651 0,0 -45.521,6.117 -65.664,49.919 0,0 24.448,-30.526 52.688,-41.624 4.976,-1.956 10.07,-3.313 15.169,-3.789 0,0 0.912,7.13 -1.694,16.257"
             style="fill:#74a643;fill-opacity:1;fill-rule:nonzero;stroke:none"
             id="path2474" />
        </g>
      </g>
    </g>
  </g>
</svg>
